<?xml version="1.0" encoding="UTF-8"?>
<svg width="30px" height="30px" viewBox="0 0 30 30" version="1.1" xmlns="http://www.w3.org/2000/svg" xmlns:xlink="http://www.w3.org/1999/xlink">
    <title>call</title>
    <defs>
        <filter id="filter-1">
            <feColorMatrix in="SourceGraphic" type="matrix" values="0 0 0 0 0.415686 0 0 0 0 0.686275 0 0 0 0 0.031373 0 0 0 1.000000 0"></feColorMatrix>
        </filter>
    </defs>
    <g id="Page" stroke="none" stroke-width="1" fill="none" fill-rule="evenodd">
        <g id="Landing-page" transform="translate(-1597.000000, -17.000000)">
            <g id="call" transform="translate(1597.000000, 10.000000)" filter="url(#filter-1)">
                <g transform="translate(0.000000, 7.000000)">
                    <path d="M27.5928125,19.6915625 C25.7560938,19.6915625 23.9526563,19.4042969 22.2436719,18.8395312 C21.3916406,18.5489844 20.4215625,18.7744531 19.8657031,19.3408594 L16.4925,21.8872656 C12.5805469,19.7990625 10.1708594,17.3901562 8.11117188,13.5075781 L10.5826563,10.2222656 C11.2247656,9.58101562 11.4550781,8.64429687 11.1791406,7.76539062 C10.6119531,6.04742188 10.3238281,4.24484375 10.3238281,2.40734375 C10.3239063,1.07992188 9.24398438,0 7.91664063,0 L2.4071875,0 C1.07992188,0 0,1.07992188 0,2.4071875 C0,17.6221094 12.3779688,30 27.5928125,30 C28.9201563,30 30.0000781,28.9200781 30.0000781,27.5927344 L30.0000781,22.09875 C30.0000781,20.7714844 28.9200781,19.6915625 27.5928125,19.6915625 Z" id="Phone-icon" fill="#6AAF08" fill-rule="nonzero"></path>
                </g>
            </g>
        </g>
    </g>
</svg>