<?xml version="1.0" encoding="UTF-8"?>
<svg width="30px" height="30px" viewBox="0 0 30 30" version="1.1" xmlns="http://www.w3.org/2000/svg" xmlns:xlink="http://www.w3.org/1999/xlink">
    <title>chainsaw</title>
    <g id="Page" stroke="none" stroke-width="1" fill="none" fill-rule="evenodd">
        <g id="Landing-page" transform="translate(-945.000000, -784.000000)" fill="#000000" fill-rule="nonzero">
            <g id="Services" transform="translate(403.000000, 756.000000)">
                <g id="Box---Service-2" transform="translate(378.000000, 0.000000)">
                    <g id="Icon" transform="translate(136.000000, 0.000000)">
                        <g id="chainsaw" transform="translate(28.000000, 28.000000)">
                            <path d="M12.8933789,19.7816016 C12.7216992,19.6099219 12.4432617,19.6099219 12.2716406,19.7816016 L9.15146484,22.9018359 C8.97978516,23.0735156 8.97978516,23.3519531 9.15146484,23.5236328 C9.32126953,23.6934375 9.60357422,23.6932031 9.77320312,23.5236328 L12.8933789,20.4033984 C13.0650586,20.2316602 13.0650586,19.9532812 12.8933789,19.7816016 Z" id="Path"></path>
                            <path d="M10.3903125,19.4855273 C10.2186328,19.3138477 9.94019531,19.3138477 9.76857422,19.4855273 L7.75183594,21.5022656 C7.58015625,21.6739453 7.58015625,21.9523828 7.75183594,22.1240039 C7.92164063,22.2938086 8.20359375,22.294043 8.37363281,22.1240039 L10.3903711,20.1072656 C10.5620508,19.9355859 10.5620508,19.657207 10.3903125,19.4855273 Z" id="Path"></path>
                            <path d="M24.300293,6.1640625 C24.2348437,5.99759766 24.1348828,5.84554688 24.0084375,5.71904297 C23.7613477,5.47195312 23.4328711,5.33589844 23.083418,5.33589844 C22.3701563,5.33589844 21.7752539,5.93150391 21.7752539,6.6440625 C21.7752539,6.99351562 21.9113086,7.32199219 22.1583984,7.56908203 C22.4054883,7.81617188 22.7339648,7.95228516 23.083418,7.95228516 C23.9929687,7.95228516 24.6314648,7.00728516 24.300293,6.1640625 Z M23.3866992,6.94728516 C23.1225586,7.21148437 22.6545703,7.01695312 22.6545703,6.6440625 C22.6545117,6.52951172 22.6991016,6.42181641 22.7801367,6.34083984 C22.8611719,6.25986328 22.9688086,6.21521484 23.0833594,6.21521484 C23.458125,6.21521484 23.6507227,6.68320313 23.3866992,6.94728516 Z" id="Shape"></path>
                            <path d="M29.9265234,4.82472656 C29.6647852,3.89472656 28.8077344,3.24521484 27.8424609,3.24521484 C27.7558594,3.24521484 27.6694336,3.25130859 27.5833594,3.26173828 C27.4325977,3.04892578 27.2630859,2.84542969 27.0726562,2.65494141 C26.7760547,2.35833984 26.4460547,2.1075 26.0920898,1.90347656 C26.0920898,1.90347656 26.4123633,0.6075 26.4128906,0.605390625 C26.5404492,0.0888867187 25.8890625,0 25.5326367,0 C24.6687891,0 23.8982812,0.514746094 23.5554492,1.28619141 C23.0228906,1.30851563 22.5065039,1.41972656 22.0226953,1.61214844 C22.0226953,1.61214844 20.844082,0.433535156 20.8430859,0.432539062 C20.6537109,0.243164062 20.3723437,0.281484375 20.1936328,0.460195312 C19.4555859,1.19824219 19.3626562,2.34076172 19.9145508,3.18076172 L19.1060156,3.98929688 C19.1060156,3.98929688 18.1969336,3.08021484 18.1961719,3.07945313 C18.0073242,2.89066406 17.7243164,2.92957031 17.5467187,3.10710938 C17.1376172,3.51621094 16.9123242,4.06013672 16.9123242,4.63869141 C16.9123242,5.06777344 17.036543,5.47775391 17.2674609,5.82785156 L16.4591016,6.63621094 C16.4591016,6.63621094 15.5497852,5.72689453 15.5492578,5.72636719 C15.3624609,5.53957031 15.0775195,5.57630859 14.8998047,5.75402344 C14.1617578,6.49207031 14.0688281,7.63458984 14.6207227,8.47458984 L13.8121875,9.283125 L12.9023437,8.37322266 C12.7126172,8.1834375 12.4321875,8.22169922 12.2529492,8.40087891 C11.5149023,9.13892578 11.4219727,10.2814453 11.9738672,11.1214453 L11.3098242,11.7854883 C10.6037695,11.2322461 9.71765625,10.9590234 8.82158203,11.0182617 C8.82158203,11.0182617 8.32060547,8.47617187 8.3203125,8.47476563 C7.92128906,6.44994141 5.89640625,5.09115234 3.8709375,5.49035156 C1.84634766,5.889375 0.487324219,7.91384766 0.886523437,9.93966797 L2.16029297,16.4033203 L1.41322266,17.1504492 C1.01835937,17.5452539 0.800917969,18.0702539 0.800917969,18.6287109 C0.800917969,19.1871094 1.01835937,19.7120508 1.41322266,20.1069727 L1.86908203,20.562832 L0.312597656,23.9617383 C-0.270820313,25.2380859 0.184804687,26.8389258 1.1325,27.802207 C1.1325,27.802207 2.28474609,28.9544531 2.28521484,28.9549219 C3.67939453,30.3491016 6.01189453,30.3477539 7.40472656,28.9549219 L18.574043,17.7856055 C18.574043,17.7856055 19.4838281,18.6953906 19.4838867,18.6954492 C19.6727344,18.8843555 19.9536328,18.8475 20.1333398,18.667793 C20.8713867,17.9297461 20.9643164,16.7872266 20.4124219,15.9472266 L21.220957,15.1386914 L22.1308008,16.0485352 C22.2166406,16.134375 22.3291406,16.1773242 22.4416406,16.1773242 C22.5756445,16.1773242 22.6877344,16.1133984 22.7801953,16.0209375 C23.5182422,15.2828906 23.6111719,14.1403711 23.0592773,13.3003711 L23.8678125,12.4918359 C23.8678125,12.4918359 24.7763086,13.400332 24.7776562,13.4016797 C24.9653906,13.5894141 25.2510352,13.5500391 25.4271094,13.3740234 C26.1421875,12.6589453 26.2635937,11.4979688 25.7063672,10.6532813 L26.5147852,9.84486328 C26.5147852,9.84486328 27.4239844,10.7540625 27.4246289,10.754707 C27.6121875,10.942207 27.8979492,10.903125 28.074082,10.7270508 C28.9051758,9.89595703 28.917832,8.55216797 28.1129883,7.70472656 C28.3617187,7.07707031 28.4704687,6.40634766 28.438125,5.74107422 C28.438125,5.74107422 29.6313281,5.40521484 29.6328516,5.40480469 C29.8906641,5.33220703 29.9944922,5.06660156 29.9265234,4.82472656 Z M25.4385352,0.882773438 L25.2776953,1.53357422 C25.0388086,1.45189453 24.7927734,1.38984375 24.5415234,1.34777344 C24.7610156,1.08158203 25.0830469,0.908847656 25.4385352,0.882773438 Z M20.5773633,1.41023437 L21.2036133,2.03648437 C21.1545117,2.06847656 20.8470117,2.29113281 20.7466992,2.37539063 C20.6835937,2.42841797 20.620957,2.48273438 20.5606055,2.53886719 C20.3932617,2.18185547 20.3988867,1.76320312 20.5773633,1.41023437 Z M17.9299219,4.05685547 L18.4841602,4.61109375 L17.9117578,5.18349609 C17.8330078,5.01515625 17.7915234,4.83011719 17.7915234,4.63880859 C17.791582,4.43320312 17.8394531,4.23498047 17.9299219,4.05685547 Z M15.2829492,6.70376953 L15.8371875,7.25800781 L15.2647852,7.83041016 C15.1860352,7.66207031 15.1445508,7.47708984 15.1445508,7.28572266 C15.1446094,7.08011719 15.1925391,6.88195312 15.2829492,6.70376953 Z M12.6364453,9.35115234 L13.1902734,9.90498047 L12.6183398,10.4769141 C12.4523437,10.1205469 12.4583789,9.70318359 12.6364453,9.35115234 Z M1.74902344,9.76992187 C1.44222656,8.21291016 2.48707031,6.65947266 4.04074219,6.35332031 C5.59541016,6.04699219 7.15171875,7.09394531 7.45740234,8.64503906 C7.45740234,8.64503906 9.07839844,16.8706055 9.07921875,16.8748828 C9.15275391,17.2480078 8.90126953,17.6216016 8.52914062,17.6949023 C8.15537109,17.7685547 7.78253906,17.5177148 7.7090625,17.1448242 L6.08724609,8.91492188 C5.9259375,8.09683594 5.1290625,7.56234375 4.31091797,7.72347656 C3.50238281,7.88267578 2.95992187,8.69138672 3.11923828,9.49992188 L4.09787109,14.4658594 L2.90882812,15.6549023 C2.90871094,15.6549609 1.74955078,9.77279297 1.74902344,9.76992187 Z M5.92482422,12.6388477 L4.84646484,13.717207 C4.84646484,13.717207 3.98291016,9.33503906 3.98185547,9.32994141 C3.91494141,8.990625 4.14234375,8.65289062 4.48072266,8.58621094 C4.82332031,8.51876953 5.15689453,8.74253906 5.22451172,9.08501953 L5.92482422,12.6388477 Z M6.78292969,28.333125 C5.72777344,29.3882812 3.96117187,29.3873438 2.90695312,28.333125 C2.90695312,28.333125 1.75488281,27.1810547 1.75423828,27.1804102 C1.06523437,26.4914063 0.688125,25.2554883 1.11216797,24.3275391 L2.5321875,21.2263477 L3.50273437,22.1968945 L2.31269531,24.7958789 C2.09414062,25.2754688 2.31158203,25.9183008 2.66396484,26.2706836 C2.66396484,26.2706836 3.81650391,27.4232227 3.81667969,27.4233984 C4.37044922,27.977168 5.30994141,27.9867773 5.87332031,27.4233984 L7.30130859,25.9954102 L8.21097656,26.9050781 C8.21097656,26.9051367 6.78339844,28.3326562 6.78292969,28.333125 Z M4.16613281,22.8602344 L6.67957031,25.3737305 C6.67957031,25.3737305 5.25328125,26.8000195 5.25158203,26.8017187 C5.02986328,27.0234375 4.65972656,27.0230273 4.43847656,26.8017187 L3.28576172,25.6490039 C3.14595703,25.5091992 3.08871094,25.3150195 3.12955078,25.1242383 L4.16613281,22.8602344 Z M8.83271484,26.2833984 C8.83271484,26.2833984 2.0409375,19.4916211 2.03472656,19.4854102 C1.56761719,19.0183008 1.56814453,18.2390625 2.03472656,17.7724805 L6.12955078,13.6776562 C6.12955078,13.6776562 6.84626953,17.3146289 6.84632812,17.3148633 C7.01074219,18.1494141 7.85115234,18.7249219 8.69912109,18.5576953 C9.54275391,18.3913477 10.1083008,17.5492383 9.94195312,16.7049023 L8.99349609,11.8917773 C9.74466797,11.8732031 10.4777344,12.159668 11.0176172,12.6994922 L16.7170898,18.3989648 L8.83271484,26.2833984 Z M19.749668,17.7176953 L19.1957812,17.1638086 L19.7677148,16.591875 C19.9337109,16.9483594 19.9276758,17.3657227 19.749668,17.7176953 Z M22.3966406,15.0707812 L21.8427539,14.5168945 L22.4146875,13.9449609 C22.580625,14.3013867 22.5745898,14.71875 22.3966406,15.0707812 Z M25.0440234,12.4241602 L24.4897852,11.8699219 L25.0622461,11.2975195 C25.1409961,11.4658594 25.1824805,11.6508984 25.1824805,11.842207 C25.1823633,12.0478125 25.1344336,12.2460352 25.0440234,12.4241602 Z M26.4508594,8.66525391 L17.3387695,17.7772852 L16.5811523,17.019668 L17.7127148,15.8881055 C17.8843945,15.7164258 17.8843945,15.4379883 17.7127148,15.2663672 C17.5410352,15.0946875 17.2625977,15.0946875 17.0909766,15.2663672 L15.9594141,16.3979297 L13.3294922,13.7680664 L22.4415234,4.65597656 C23.1666211,3.9309375 24.3463477,3.93087891 25.0713867,4.65597656 C25.7964844,5.38107422 25.7964844,6.56080078 25.0713867,7.28583984 L18.3208008,14.0364844 C18.1491211,14.2081641 18.1491211,14.4866016 18.3208008,14.6582227 C18.4924805,14.8299023 18.770918,14.8299023 18.9425391,14.6582227 L25.6931836,7.90757812 C26.2098047,7.39095703 26.4943359,6.70318359 26.4943359,5.97087891 C26.4943359,5.23857422 26.2098047,4.55080078 25.6931836,4.03417969 C24.6252539,2.96625 22.8876562,2.96630859 21.8197852,4.03417969 L12.7077539,13.1462695 L11.9501367,12.3886523 L21.062168,3.27667969 C21.0630469,3.27580078 21.0639258,3.27498047 21.0648047,3.27416016 C22.1907422,2.14828125 23.9556445,1.8459375 25.3935938,2.52990234 C26.0640234,2.84871094 26.6233594,3.36521484 27.0059766,3.99111328 C27.9065625,5.46445313 27.6706641,7.44539063 26.4508594,8.66525391 Z M27.6905273,9.77677734 L27.1361133,9.22236328 C27.1567383,9.20097656 27.1761914,9.17865234 27.1964062,9.15685547 C27.3677344,8.97210938 27.5248828,8.77429688 27.6642773,8.56429688 C27.8743945,8.93830078 27.8831836,9.39580078 27.6905273,9.77677734 Z M28.3132617,4.86257813 C28.277168,4.71304687 28.2328711,4.56621094 28.1823633,4.42166016 C28.1816602,4.41949219 28.1144531,4.23457031 28.0771289,4.14626953 C28.4176172,4.21019531 28.7180273,4.41041016 28.9096289,4.69476562 L28.3132617,4.86257813 Z" id="Shape"></path>
                        </g>
                    </g>
                </g>
            </g>
        </g>
    </g>
</svg>