<?xml version="1.0" encoding="UTF-8"?>
<svg width="30px" height="30px" viewBox="0 0 30 30" version="1.1" xmlns="http://www.w3.org/2000/svg" xmlns:xlink="http://www.w3.org/1999/xlink">
    <title>cut</title>
    <g id="Page" stroke="none" stroke-width="1" fill="none" fill-rule="evenodd">
        <g id="Landing-page" transform="translate(-567.000000, -784.000000)" fill="#000000" fill-rule="nonzero">
            <g id="Services" transform="translate(403.000000, 756.000000)">
                <g id="Icon" transform="translate(136.000000, 0.000000)">
                    <g id="cut" transform="translate(28.000000, 28.000000)">
                        <path d="M5.25014671,21.7631309 C5.92246188,21.7629475 6.58890845,21.6356734 7.21390845,21.387544 C7.30212,21.3530663 7.3831793,21.3162045 7.46919014,21.277142 L7.47414174,21.2731074 L10.0706059,20.0878448 L8.94934714,23.1086781 C8.91688676,23.1952392 8.88681042,23.2773988 8.86095216,23.363593 C8.05659479,25.9963688 9.49090376,28.79163 12.0987383,29.6735622 C12.6683539,29.8745599 13.2680458,29.9775365 13.8725059,29.9775365 C16.0603727,29.9904636 18.0274354,28.64565 18.809419,26.6021127 C19.2822037,25.3398254 19.2237016,23.9401775 18.6473005,22.7217209 C18.0549442,21.4590669 16.9764158,20.4898401 15.6576438,20.0353946 C15.580069,20.0078859 15.5074457,19.9882629 15.4300543,19.9653389 L16.470804,17.1634756 L27.2311473,12.2513204 C27.3158744,12.2131749 27.3958333,12.165493 27.4701071,12.1095584 C28.4132923,11.3901115 29.8516359,9.37518338 29.9844117,7.61040197 C30.0183392,7.17906394 29.8193589,6.7622139 29.4622946,6.51775235 C29.0975279,6.25971977 28.6229093,6.21607249 28.2174296,6.40331573 L18.8838762,10.6679137 L22.2166593,1.69399207 C22.3743765,1.27475793 22.2953345,0.803073662 22.0097931,0.457929859 C21.7361723,0.11810446 21.3015331,-0.049149061 20.8709287,0.0194395305 C19.0903756,0.299295775 17.1572403,1.87591695 16.5025308,2.86091549 C16.4484301,2.94234155 16.4042327,3.03000291 16.3708554,3.12169897 L12.4831279,13.589532 L10.0896787,14.6825484 C10.0583187,14.6079079 10.0297095,14.5323503 9.99376469,14.4589935 C8.71790638,11.8907717 5.63288587,10.8003228 3.0265185,11.9964055 C1.75799587,12.5649208 0.774464507,13.6240097 0.301129671,14.9310446 C-0.161018216,16.1992004 -0.0887617371,17.6008656 0.501210376,18.8151042 C1.38772742,20.6272007 3.23283451,21.7724838 5.25014671,21.7631309 Z M28.6335461,7.31605779 C28.7173562,7.27809568 28.8154709,7.28744864 28.8908451,7.34063235 C28.9587001,7.38354606 28.9970291,7.4605707 28.9909771,7.54034624 C28.8847931,8.94017751 27.6621185,10.7117444 26.865647,11.3191388 C26.8509756,11.3297755 26.8350206,11.3389451 26.8183319,11.3460974 L16.9652289,15.8452538 L18.3953198,11.9960387 L28.6335461,7.31605779 Z M17.3078052,3.47124413 C17.3144073,3.4518046 17.3232101,3.43291521 17.3342136,3.41530958 C17.8884243,2.58289319 19.6027729,1.23111061 21.0264451,1.00737235 C21.1062207,0.995818685 21.1859962,1.02772887 21.2358788,1.09081573 C21.2945643,1.16197183 21.3108862,1.2589862 21.2793427,1.34573061 L14.2983422,20.1463469 C14.2948577,20.1619352 14.2922902,20.1777069 14.2908231,20.1938454 C14.2838542,20.2088835 14.278169,20.2244718 14.2734008,20.2402436 C14.2723005,20.2569322 14.2723005,20.2736209 14.2734008,20.2903096 C14.2691828,20.3546802 14.2779856,20.4192342 14.2987089,20.4803037 C14.3095291,20.5107468 14.3231,20.5402729 14.3392385,20.5683319 C14.3548269,20.5949237 14.3729827,20.6200484 14.3933392,20.6431558 C14.4140625,20.6675469 14.4375367,20.6893706 14.4628448,20.7086268 C14.4888864,20.7280663 14.5171288,20.7451218 14.5468383,20.7586928 C14.5607761,20.7687793 14.5754475,20.7777655 14.5908524,20.7858348 C14.6071743,20.7895026 14.623863,20.7917033 14.640735,20.7933539 C14.6555898,20.8001394 14.6711781,20.8058245 14.6865831,20.8107761 C14.9048195,20.8469043 15.118838,20.9026555 15.3271714,20.9771127 C16.3923122,21.3437133 17.2637911,22.1258803 17.7431778,23.1453565 C18.2038586,24.1206353 18.2500733,25.2409771 17.8715522,26.2511004 C17.0292327,28.4158597 14.6159771,29.5152949 12.4295775,28.7307438 C10.3301056,28.0254181 9.17143484,25.7792327 9.8142239,23.6597711 C9.83586413,23.5906323 9.85915493,23.5268119 9.88482981,23.4596904 L9.88482981,23.4567562 L17.3078052,3.47124413 Z M1.24138056,15.2734375 C1.6243031,14.2198503 2.41784038,13.3667107 3.44098446,12.9087808 C5.55200995,11.935336 8.05457746,12.8147007 9.09239291,14.8949164 C9.18628962,15.087478 9.26239728,15.2882923 9.31979901,15.4947916 C9.32383362,15.5092796 9.33428695,15.519733 9.33923854,15.5338542 C9.34419014,15.547792 9.34217282,15.5587955 9.3476746,15.5708993 C9.36106221,15.5945569 9.37591695,15.6174809 9.39223887,15.6393046 C9.4004915,15.653976 9.40966108,15.6679137 9.41974765,15.6813014 C9.45550911,15.7247653 9.49823944,15.7619938 9.54683831,15.7907864 C9.55820864,15.7966549 9.57012911,15.8021567 9.58223296,15.8067415 C9.62239582,15.8269146 9.66494277,15.8414026 9.70877347,15.8498386 C9.72527878,15.8533231 9.74196742,15.8557071 9.7586561,15.8571743 C9.77332746,15.8571743 9.78653169,15.8632262 9.80083624,15.8632262 C9.81935887,15.860292 9.83788146,15.8562573 9.85622066,15.8511223 C9.88097859,15.8514892 9.90536972,15.850022 9.92957746,15.8469043 C9.94516577,15.8423195 9.9561693,15.8316828 9.97065728,15.826181 C9.98312793,15.8241638 9.99559859,15.8212295 10.0077024,15.817745 L11.9887031,14.913439 L10.5584287,18.7652215 L7.05087296,20.3647667 L7.04720512,20.3678844 C6.98045042,20.3983275 6.91718019,20.4278536 6.84492371,20.4557292 C4.76690873,21.2910798 2.39620009,20.3878741 1.40093164,18.3815654 C0.929063944,17.4099545 0.871662254,16.2883289 1.24138056,15.2734375 Z" id="Shape"></path>
                        <path d="M5.25564845,19.9724957 C5.73026704,19.971941 6.19920042,19.8672242 6.62888789,19.6653096 C8.12976817,18.9621846 8.86095216,17.241784 8.32526408,15.6730487 C7.78975939,14.1044968 6.15903756,13.1902876 4.54151995,13.55212 C2.92381897,13.9135857 1.83758803,15.4350059 2.02079667,17.082233 C2.20418869,18.7296435 3.59796803,19.9752421 5.25564845,19.9724957 L5.25564845,19.9724957 Z M4.29522446,14.6860329 C5.42015113,14.1587808 6.75964643,14.6433025 7.2868985,15.7684126 C7.81396714,16.8933392 7.32962883,18.2324677 6.20470216,18.7599032 C5.07977554,19.2871552 3.74028023,18.8026335 3.21302817,17.6778902 C2.9575631,17.1379841 2.928037,16.5183025 3.13123531,15.9563894 C3.33443371,15.394843 3.75330103,14.9374633 4.29522446,14.6860329 Z" id="Shape"></path>
                        <path d="M12.7776555,27.8433099 C13.1295848,27.9678331 13.5002201,28.0311538 13.8734228,28.0311538 C15.2281397,28.0386223 16.4454959,27.2054724 16.929284,25.9402509 C17.2228946,25.1569836 17.1867664,24.2882556 16.829152,23.5323137 C16.4625514,22.7503301 15.7955546,22.150088 14.9796435,21.8674809 C13.3078418,21.2718237 11.4658524,22.1161605 10.8259977,23.7716403 C10.533304,24.5547242 10.5692488,25.422902 10.9259463,26.1792107 C11.2932805,26.9611943 11.9610108,27.561253 12.7776555,27.8433099 L12.7776555,27.8433099 Z M11.7633143,24.1215522 C12.1002054,23.2480561 12.9427084,22.6744058 13.8789246,22.6813747 C14.1404416,22.6813747 14.4001247,22.7261223 14.6467869,22.8132336 C15.2098005,23.0068955 15.6704812,23.4198944 15.923929,23.9585167 C16.1669234,24.4720144 16.1914979,25.0621699 15.9919674,25.5941901 C15.5448577,26.7398401 14.2660652,27.3200924 13.1095951,26.9025088 C12.5462148,26.709397 12.0849838,26.295848 11.8317195,25.7566755 C11.5887251,25.2431778 11.5639671,24.6533891 11.7633143,24.1215522 L11.7633143,24.1215522 Z" id="Shape"></path>
                        <path d="M14.28147,15.9380502 C14.535468,16.0302963 14.8162412,15.8999046 14.9097711,15.6464569 C14.9539686,15.5246846 14.9475499,15.3904416 14.8923489,15.2734375 C14.8369645,15.1564334 14.7371992,15.0665713 14.6152436,15.0234742 C14.3610622,14.931228 14.0804724,15.0616197 13.9869425,15.3152509 C13.942745,15.4370232 13.9489803,15.5710827 14.0041813,15.6882702 C14.0593823,15.805091 14.1591476,15.8951364 14.28147,15.9380502 Z" id="Path"></path>
                        <path d="M19.6361502,13.1941388 C19.6946523,13.3133436 19.7980854,13.4043061 19.9237089,13.4470364 C20.0491491,13.4895833 20.1865097,13.4809639 20.3055311,13.4222785 L23.3573577,11.9224985 C23.5216769,11.846024 23.6318955,11.6866564 23.6450998,11.5060153 C23.658304,11.3251907 23.5728433,11.1515185 23.4215449,11.0517532 C23.2702465,10.9523547 23.0769513,10.9422682 22.9159331,11.0257115 L19.8664906,12.5254915 C19.7472858,12.5834434 19.6559566,12.6866931 19.6128594,12.8119498 C19.5695789,12.9375733 19.578015,13.074934 19.6361502,13.1941388 L19.6361502,13.1941388 Z" id="Path"></path>
                        <path d="M25.1720217,10.9741784 C25.2483128,10.9745452 25.3233201,10.9574897 25.3920921,10.9241124 L26.4093677,10.4243691 C26.5735035,10.3478946 26.6835387,10.1883436 26.696743,10.0078859 C26.7101306,9.82706131 26.6246699,9.65338911 26.4731881,9.55362385 C26.3220731,9.45404197 26.1285945,9.4439554 25.9679431,9.52758216 L24.9506676,10.0273254 C24.7403169,10.1292914 24.6286312,10.3632996 24.6816315,10.5908891 C24.7348151,10.8184786 24.9383803,10.9787632 25.1720217,10.977306 L25.1720217,10.9741784 Z" id="Path"></path>
                    </g>
                </g>
            </g>
        </g>
    </g>
</svg>