<?xml version="1.0" encoding="UTF-8"?>
<svg width="30px" height="30px" viewBox="0 0 30 30" version="1.1" xmlns="http://www.w3.org/2000/svg" xmlns:xlink="http://www.w3.org/1999/xlink">
    <title>hand-saw</title>
    <g id="Page" stroke="none" stroke-width="1" fill="none" fill-rule="evenodd">
        <g id="Landing-page" transform="translate(-1323.000000, -784.000000)" fill="#000000" fill-rule="nonzero">
            <g id="Services" transform="translate(403.000000, 756.000000)">
                <g id="Box---Service-3" transform="translate(756.000000, 0.000000)">
                    <g id="Icon" transform="translate(136.000000, 0.000000)">
                        <g id="hand-saw" transform="translate(28.000000, 28.000000)">
                            <path d="M4.56521484,8.39941406 L6.08150391,8.39941406 C6.23689453,8.39941406 6.38595703,8.33765625 6.49582031,8.22779297 L8.98763672,5.73597656 C9.21644531,5.50716797 9.21644531,5.13615234 8.98763672,4.90728516 L6.9271875,2.84683594 C6.81732422,2.73697266 6.66826172,2.67521484 6.51287109,2.67521484 C6.35748047,2.67521484 6.20841797,2.73697266 6.09855469,2.84683594 L2.84853516,6.09685547 C2.61972656,6.32566406 2.61972656,6.69667969 2.84853516,6.92554688 L4.15083984,8.22785156 C4.26076172,8.33765625 4.40982422,8.39941406 4.56521484,8.39941406 L4.56521484,8.39941406 Z M6.51292969,4.08984375 L7.7446875,5.32160156 L5.83880859,7.22753906 L4.80791016,7.22753906 L4.09160156,6.51117188 L6.51292969,4.08984375 Z" id="XMLID_548_"></path>
                            <path d="M29.4140625,18.984375 L26.7108398,18.984375 L21.6223828,13.8959766 C21.3935742,13.6672266 21.0225586,13.6672266 20.79375,13.8959766 C20.5649414,14.1247852 20.5649414,14.4958008 20.79375,14.724668 L25.0535156,18.984375 L16.8529688,18.984375 L16.8529688,18.5939063 C16.8529688,18.2703516 16.5906445,18.0079688 16.2670313,18.0079688 L14.7751758,18.0079688 L14.7751758,17.1384375 C14.7751758,16.8148828 14.5128516,16.5525 14.1892383,16.5525 L12.6973828,16.5525 L12.6973828,15.6829102 C12.6973828,15.3593555 12.4350586,15.0969727 12.1114453,15.0969727 L10.6195898,15.0969727 L10.6195898,14.2274414 C10.6195898,13.9038867 10.3572656,13.6415039 10.0336523,13.6415039 L8.54179687,13.6415039 L8.54179687,12.7719141 C8.54179687,12.4483594 8.27947266,12.1859766 7.95585937,12.1859766 L6.12070312,12.1859766 L4.91208984,10.9775391 L7.14943359,10.9775391 C7.30482422,10.9775391 7.45388672,10.9157813 7.56375,10.805918 L12.219375,6.15029297 L17.0648438,10.9957031 C17.1792188,11.1100781 17.3292187,11.1673242 17.4791602,11.1673242 C17.6291016,11.1673242 17.7791016,11.1100781 17.8934766,10.9957031 C18.1222852,10.7668945 18.1222852,10.3958789 17.8934766,10.1670117 L8.58451172,0.858105469 C8.03115234,0.304746094 7.29544922,0 6.51292969,0 C5.73035156,0 4.99464844,0.304746094 4.44128906,0.858105469 L0.859863281,4.43953125 C-0.282363281,5.58181641 -0.282363281,7.44046875 0.859863281,8.58275391 L5.45203125,13.1746875 C5.49785156,13.2231445 5.55275391,13.2645703 5.61585938,13.2960938 C5.70451172,13.3404492 5.7984375,13.3606055 5.89171875,13.3579102 L7.36986328,13.3579102 L7.36986328,14.2275 C7.36986328,14.5510547 7.6321875,14.8134375 7.95580078,14.8134375 L9.44765625,14.8134375 L9.44765625,15.6829688 C9.44765625,16.0065234 9.70998047,16.2689063 10.0335938,16.2689063 L11.5254492,16.2689063 L11.5254492,17.1384961 C11.5254492,17.4620508 11.7877734,17.7244336 12.1113867,17.7244336 L13.6032422,17.7244336 L13.6032422,18.5939648 C13.6032422,18.7441406 13.6602539,18.8807227 13.7531836,18.9844336 L0.5859375,18.9844336 C0.262324219,18.9844336 6.66133815e-15,19.2468164 6.66133815e-15,19.5703711 L6.66133815e-15,29.4141211 C6.66133815e-15,29.7376758 0.262324219,30.0000586 0.5859375,30.0000586 L29.4140625,30.0000586 C29.7376758,30.0000586 30,29.7376758 30,29.4141211 L30,19.5703125 C30,19.2467578 29.7376758,18.984375 29.4140625,18.984375 L29.4140625,18.984375 Z M1.68849609,5.26816406 L5.26998047,1.68673828 C5.60197266,1.3546875 6.04341797,1.171875 6.51292969,1.171875 C6.98244141,1.171875 7.42388672,1.3546875 7.75587891,1.68673828 L11.3908008,5.32160156 L6.90679687,9.80560547 L3.74003906,9.80560547 L1.68849609,7.75400391 C1.00318359,7.06875 1.00318359,5.95347656 1.68849609,5.26816406 Z M16.6914844,28.828125 C17.8289648,28.4611523 18.9389648,28.0102734 20.0075391,27.4774805 C20.2157812,27.3737109 20.3428125,27.1565039 20.3313281,26.9241797 C20.3198438,26.6918555 20.1719531,26.4882422 19.9545117,26.4054492 L19.3481836,26.1747656 C16.6185352,25.1360156 13.7535938,24.609375 10.8329883,24.609375 C10.509375,24.609375 10.2470508,24.8717578 10.2470508,25.1953125 C10.2470508,25.5188672 10.509375,25.78125 10.8329883,25.78125 C13.3573242,25.78125 15.8377734,26.1949219 18.2178516,27.0118945 C15.4144336,28.1986523 12.3673828,28.828125 9.32455078,28.828125 L1.171875,28.828125 L1.171875,25.78125 L6.4453125,25.78125 C6.76892578,25.78125 7.03125,25.5188672 7.03125,25.1953125 C7.03125,24.8717578 6.76892578,24.609375 6.4453125,24.609375 L1.171875,24.609375 L1.171875,20.15625 L27.0910547,20.15625 C26.4446484,20.5074609 25.7670703,20.8069336 25.0727344,21.0482227 C24.7670508,21.1544531 24.605332,21.4883789 24.7115625,21.7940625 C24.7957031,22.0361133 25.0224609,22.1878711 25.2650391,22.1878711 C25.3287891,22.1878711 25.3937109,22.1773242 25.4574023,22.1552344 C26.3200195,21.8555273 27.1587891,21.4730273 27.950332,21.0185156 L28.828125,20.5144336 L28.828125,24.609375 L22.1679492,24.609375 C21.8443359,24.609375 21.5820117,24.8717578 21.5820117,25.1953125 C21.5820117,25.5188672 21.8443359,25.78125 22.1679492,25.78125 L28.828125,25.78125 L28.828125,28.828125 L16.6914844,28.828125 Z" id="XMLID_560_"></path>
                            <path d="M20.6369531,21.796875 L15,21.796875 C14.6763867,21.796875 14.4140625,22.0592578 14.4140625,22.3828125 C14.4140625,22.7063672 14.6763867,22.96875 15,22.96875 L20.6369531,22.96875 C20.9605664,22.96875 21.2228906,22.7063672 21.2228906,22.3828125 C21.2228906,22.0592578 20.9605664,21.796875 20.6369531,21.796875 Z" id="XMLID_562_"></path>
                            <path d="M12.0117188,21.796875 L4.30025391,21.796875 C3.97664062,21.796875 3.71431641,22.0592578 3.71431641,22.3828125 C3.71431641,22.7063672 3.97664062,22.96875 4.30025391,22.96875 L12.0117188,22.96875 C12.335332,22.96875 12.5976562,22.7063672 12.5976562,22.3828125 C12.5976562,22.0592578 12.3352734,21.796875 12.0117188,21.796875 Z" id="XMLID_563_"></path>
                            <path d="M19.3435547,13.0318359 C19.4976562,13.0318359 19.6488281,12.9691406 19.7578125,12.8600977 C19.8667969,12.7511719 19.9294922,12.6 19.9294922,12.4458984 C19.9294922,12.2917969 19.8667969,12.140625 19.7578125,12.0316406 C19.6488281,11.9226563 19.4982422,11.8599609 19.3435547,11.8599609 C19.1894531,11.8599609 19.0382813,11.9225977 18.9292969,12.0316406 C18.8203125,12.140625 18.7576172,12.2917969 18.7576172,12.4458984 C18.7576172,12.6 18.8203125,12.7511719 18.9292969,12.8600977 C19.0382813,12.9691406 19.1894531,13.0318359 19.3435547,13.0318359 Z" id="XMLID_567_"></path>
                        </g>
                    </g>
                </g>
            </g>
        </g>
    </g>
</svg>