<?xml version="1.0" encoding="UTF-8"?>
<svg width="217px" height="49px" viewBox="0 0 217 49" version="1.1" xmlns="http://www.w3.org/2000/svg" xmlns:xlink="http://www.w3.org/1999/xlink">
    <title>Logo COLOR</title>
    <g id="Page" stroke="none" stroke-width="1" fill="none" fill-rule="evenodd">
        <g id="Landing-page" transform="translate(-90.000000, -10.000000)">
            <g id="Group" transform="translate(88.000000, 10.000000)">
                <g id="Logo-Copy" transform="translate(-1.000000, 0.000000)">
                    <text id="Rezach.BG" font-family="OpenSans-Bold, Open Sans" font-size="28.2857143" font-weight="bold" letter-spacing="2.35714293" fill="#0E192D">
                        <tspan x="1.38058005" y="30">Rezach.BG</tspan>
                    </text>
                    <g id="leaf" transform="translate(19.523810, 0.000000)" fill-rule="nonzero">
                        <path d="M9.80463239,0.140560266 C9.77012429,0.0555033939 9.68869856,0 9.598379,0 C0.937515407,0 0,3.65821312 0,5.2312002 C0,7.27181883 1.52503204,8.64285714 3.79469824,8.64285714 C6.66125623,8.64285714 7.26172648,5.86348685 7.58403926,4.37009799 C7.89737448,2.84994895 8.65446003,1.46185235 9.75595692,0.388012008 C9.81972053,0.323105235 9.83893122,0.225489201 9.80463239,0.140560266 Z" id="Path" fill="#6AAF08"></path>
                        <path d="M0.224494699,9.82142857 C0.10051436,9.82142857 0,9.72313128 0,9.6018856 C0,8.29652386 2.314461,4.10820702 5.96328381,2.37915431 C6.07486822,2.32630099 6.20913992,2.37188904 6.26320637,2.48101221 C6.31725178,2.59013538 6.27063551,2.72144541 6.1590511,2.77431932 L6.1590511,2.77431932 C2.47430325,4.52051643 0.448968352,8.57579438 0.448968352,9.60190618 C0.448968352,9.72315186 0.348475037,9.82142857 0.224494699,9.82142857 Z" id="Path" fill="#388E3C"></path>
                    </g>
                    <g id="leaf-(1)" transform="translate(37.374510, 10.776155) rotate(-79.000000) translate(-37.374510, -10.776155) translate(33.374510, 6.276155)" fill-rule="nonzero">
                        <path d="M7.08198901,0.501819179 C7.11873797,0.434247373 7.20577916,0.407991549 7.27640607,0.443150863 C7.31202643,0.460882069 7.33830114,0.492044284 7.34889419,0.529097957 C8.09337748,2.94478531 7.68707968,4.61030626 6.83250791,5.59840422 C6.50166825,5.98354647 6.07792658,6.28598097 5.59777446,6.4796603 C5.15546031,6.65913193 4.67534779,6.73699011 4.19592827,6.70698345 C3.27799622,6.6456062 2.44005652,6.17656276 2.0511828,5.33622485 C1.95154876,5.12140447 1.88715888,4.89317203 1.86030996,4.65955961 C1.80599832,4.19133075 1.90155354,3.71834704 2.13434317,3.30319814 C2.38425987,2.86020215 2.78218223,2.51016239 3.26453216,2.30903823 C3.53367475,2.19558503 3.81954841,2.12274691 4.1119759,2.09308123 C6.35176179,1.8574229 7.079613,0.501819179 7.08198901,0.501819179 Z" id="Path" fill="#6AAF08"></path>
                        <path d="M6.7710508,0.391781958 C6.77294262,0.312871608 6.83672937,0.25045409 6.91352953,0.252353693 C6.9903297,0.254341687 7.05107807,0.319881062 7.04922927,0.398791412 C7.04905249,0.404603172 7.04855565,0.410375663 7.04773395,0.41612852 C7.04773395,0.423196877 6.92619898,2.06541177 5.36611805,3.727261 L5.351595,3.74296846 C4.98507917,4.12923452 4.58290544,4.47799903 4.15076838,4.78437303 L5.08788705,4.96343806 C5.1625852,4.98195323 5.20852389,5.05917503 5.19050384,5.13590597 C5.17418453,5.20537221 5.1104551,5.25178775 5.04126043,5.24460159 L3.81826705,5.0089897 C2.70304996,5.73467433 0.812760817,6.40459748 0.647656711,7.98555328 C0.63743325,8.06379607 0.567416879,8.11871327 0.491266432,8.10820891 C0.418784965,8.09821504 0.366215359,8.03226334 0.370954458,7.95727986 C0.568162141,6.06217486 2.4423995,5.57445824 3.70666891,4.74588975 L3.72424943,4.73410915 C4.22879153,4.40601959 4.6961661,4.0211672 5.11769752,3.58667923 L5.00686374,2.45966901 C4.99664028,2.38142623 5.05008892,2.30948606 5.12623936,2.2989817 C5.20238981,2.28847733 5.27240618,2.34339454 5.28262964,2.42163732 C5.28305005,2.42487699 5.2833749,2.42813628 5.283566,2.43139558 L5.36764679,3.30630108 C6.66786074,1.80623869 6.77028643,0.398064942 6.7710508,0.391781958 L6.7710508,0.391781958 Z" id="Path" fill="#009549"></path>
                    </g>
                    <g id="leaf" transform="translate(103.595238, 4.321429)" fill-rule="nonzero">
                        <path d="M7.84370591,0.115003854 C7.81609943,0.0454118677 7.75095885,0 7.6787032,0 C0.750012326,0 0,2.99308346 0,4.28007289 C0,5.94966995 1.22002563,7.07142857 3.03575859,7.07142857 C5.32900499,7.07142857 5.80938118,4.79739833 6.0672314,3.57553472 C6.31789959,2.33177641 6.92356802,1.19606102 7.80476554,0.317464371 C7.85577642,0.264358829 7.87114498,0.184491164 7.84370591,0.115003854 Z" id="Path" fill="#6AAF08"></path>
                        <path d="M0.182401943,7.85714286 C0.0816679177,7.85714286 0,7.77953973 0,7.68381946 C0,6.65327072 1.88049956,3.34670479 4.8451681,1.98166318 C4.93583043,1.93993687 5.04492618,1.97592744 5.08885518,2.06207731 C5.13276707,2.14822718 5.09489135,2.251893 5.00422902,2.29363555 L5.00422902,2.29363555 C2.01037139,3.67221222 0.364786786,6.87374744 0.364786786,7.6838357 C0.364786786,7.77955598 0.283135968,7.85714286 0.182401943,7.85714286 Z" id="Path" fill="#388E3C"></path>
                    </g>
                    <g id="leaf-(1)" transform="translate(170.745359, 14.043833) rotate(28.000000) translate(-170.745359, -14.043833) translate(166.745359, 9.543833)" fill-rule="nonzero">
                        <path d="M4.1119759,2.09308123 C6.35176179,1.8574229 7.079613,0.501819179 7.08198901,0.501819179 C7.11873797,0.434247373 7.20577916,0.407991549 7.27640607,0.443150863 C7.31202643,0.460882069 7.33830114,0.492044284 7.34889419,0.529097957 C8.09337748,2.94478531 7.68707968,4.61030626 6.83250791,5.59840422 C6.50166825,5.98354647 6.07792658,6.28598097 5.59777446,6.4796603 C5.15546031,6.65913193 4.67534779,6.73699011 4.19592827,6.70698345 C3.27799622,6.6456062 2.44005652,6.17656276 2.0511828,5.33622485 C1.95154876,5.12140447 1.88715888,4.89317203 1.86030996,4.65955961 C1.80599832,4.19133075 1.90155354,3.71834704 2.13434317,3.30319814 C2.38425987,2.86020215 2.78218223,2.51016239 3.26453216,2.30903823 C3.53367475,2.19558503 3.81954841,2.12274691 4.1119759,2.09308123 L4.1119759,2.09308123 Z" id="Path" fill="#6AAF08"></path>
                        <path d="M6.7710508,0.391781958 C6.77294262,0.312871608 6.83672937,0.25045409 6.91352953,0.252353693 C6.9903297,0.254341687 7.05107807,0.319881062 7.04922927,0.398791412 C7.04905249,0.404603172 7.04855565,0.410375663 7.04773395,0.41612852 C7.04773395,0.423196877 6.92619898,2.06541177 5.36611805,3.727261 L5.351595,3.74296846 C4.98507917,4.12923452 4.58290544,4.47799903 4.15076838,4.78437303 L5.08788705,4.96343806 C5.1625852,4.98195323 5.20852389,5.05917503 5.19050384,5.13590597 C5.17418453,5.20537221 5.1104551,5.25178775 5.04126043,5.24460159 L3.81826705,5.0089897 C2.70304996,5.73467433 0.812760817,6.40459748 0.647656711,7.98555328 C0.63743325,8.06379607 0.567416879,8.11871327 0.491266432,8.10820891 C0.418784965,8.09821504 0.366215359,8.03226334 0.370954458,7.95727986 C0.568162141,6.06217486 2.4423995,5.57445824 3.70666891,4.74588975 L3.72424943,4.73410915 C4.22879153,4.40601959 4.6961661,4.0211672 5.11769752,3.58667923 L5.00686374,2.45966901 C4.99664028,2.38142623 5.05008892,2.30948606 5.12623936,2.2989817 C5.20238981,2.28847733 5.27240618,2.34339454 5.28262964,2.42163732 C5.28305005,2.42487699 5.2833749,2.42813628 5.283566,2.43139558 L5.36764679,3.30630108 C6.66786074,1.80623869 6.77028643,0.398064942 6.7710508,0.391781958 L6.7710508,0.391781958 Z" id="Path" fill="#009549"></path>
                    </g>
                    <text id="Рязане,-кастрене,-из" font-family="OpenSans-SemiBold, Open Sans" font-size="8.25" font-weight="500" letter-spacing="0.6875" fill="#0E192D">
                        <tspan x="2.47221738" y="47.5">РЯЗАНЕ, КАСТРЕНЕ, ИЗКОРЕНЯВАНЕ И КОСЕНЕ</tspan>
                    </text>
                </g>
            </g>
        </g>
    </g>
</svg>