<?xml version="1.0" encoding="UTF-8"?>
<svg width="48px" height="51px" viewBox="0 0 48 51" version="1.1" xmlns="http://www.w3.org/2000/svg" xmlns:xlink="http://www.w3.org/1999/xlink">
    <title>share</title>
    <defs>
        <filter x="-20.0%" y="-3.5%" width="140.0%" height="106.9%" filterUnits="objectBoundingBox" id="filter-1">
            <feOffset dx="0" dy="2" in="SourceAlpha" result="shadowOffsetOuter1"></feOffset>
            <feGaussianBlur stdDeviation="2" in="shadowOffsetOuter1" result="shadowBlurOuter1"></feGaussianBlur>
            <feColorMatrix values="0 0 0 0 0.803894928   0 0 0 0 0.803894928   0 0 0 0 0.803894928  0 0 0 1 0" type="matrix" in="shadowBlurOuter1" result="shadowMatrixOuter1"></feColorMatrix>
            <feMerge>
                <feMergeNode in="shadowMatrixOuter1"></feMergeNode>
                <feMergeNode in="SourceGraphic"></feMergeNode>
            </feMerge>
        </filter>
        <filter id="filter-2">
            <feColorMatrix in="SourceGraphic" type="matrix" values="0 0 0 0 0.415686 0 0 0 0 0.686275 0 0 0 0 0.031373 0 0 0 1.000000 0"></feColorMatrix>
        </filter>
    </defs>
    <g id="Page" stroke="none" stroke-width="1" fill="none" fill-rule="evenodd">
        <g id="Landing-page" transform="translate(-1866.000000, -232.000000)">
            <g id="Share" filter="url(#filter-1)" transform="translate(1860.000000, 227.000000)">
                <g id="share" filter="url(#filter-2)">
                    <g transform="translate(15.000000, 14.000000)">
                        <path d="M28.9360871,5.44672538 C28.9360871,7.89095745 26.9548704,9.87242355 24.5106383,9.87242355 C22.0664062,9.87242355 20.0851895,7.89095745 20.0851895,5.44672538 C20.0851895,3.0027427 22.0664062,1.0212766 24.5106383,1.0212766 C26.9548704,1.0212766 28.9360871,3.0027427 28.9360871,5.44672538 L28.9360871,5.44672538 Z" id="Path" fill="#000000" fill-rule="nonzero"></path>
                        <path d="M24.5106383,10.8937001 C21.5066489,10.8937001 19.0639129,8.45071474 19.0639129,5.44672538 C19.0639129,2.4429854 21.5066489,0 24.5106383,0 C27.5146277,0 29.9573637,2.4429854 29.9573637,5.44672538 C29.9573637,8.45071474 27.5146277,10.8937001 24.5106383,10.8937001 Z M24.5106383,2.04255319 C22.6328956,2.04255319 21.1064661,3.57047872 21.1064661,5.44672538 C21.1064661,7.32322143 22.6328956,8.85114696 24.5106383,8.85114696 C26.388381,8.85114696 27.9148105,7.32322143 27.9148105,5.44672538 C27.9148105,3.57047872 26.388381,2.04255319 24.5106383,2.04255319 Z" id="Shape" fill="#000000" fill-rule="nonzero"></path>
                        <path d="M28.9360871,27.2341257 C28.9360871,29.6781084 26.9548704,31.6595745 24.5106383,31.6595745 C22.0664062,31.6595745 20.0851895,29.6781084 20.0851895,27.2341257 C20.0851895,24.7898936 22.0664062,22.8084275 24.5106383,22.8084275 C26.9548704,22.8084275 28.9360871,24.7898936 28.9360871,27.2341257 L28.9360871,27.2341257 Z" id="Path" fill="#000000" fill-rule="nonzero"></path>
                        <path d="M24.5106383,32.6808511 C21.5066489,32.6808511 19.0639129,30.2378657 19.0639129,27.2341257 C19.0639129,24.2301363 21.5066489,21.7871509 24.5106383,21.7871509 C27.5146277,21.7871509 29.9573637,24.2301363 29.9573637,27.2341257 C29.9573637,30.2378657 27.5146277,32.6808511 24.5106383,32.6808511 Z M24.5106383,23.8297041 C22.6328956,23.8297041 21.1064661,25.3576296 21.1064661,27.2341257 C21.1064661,29.1103723 22.6328956,30.6382979 24.5106383,30.6382979 C26.388381,30.6382979 27.9148105,29.1103723 27.9148105,27.2341257 C27.9148105,25.3576296 26.388381,23.8297041 24.5106383,23.8297041 L24.5106383,23.8297041 Z" id="Shape" fill="#000000" fill-rule="nonzero"></path>
                        <path d="M9.87242355,16.3404255 C9.87242355,18.7846576 7.89095745,20.7658743 5.44672538,20.7658743 C3.0027427,20.7658743 1.0212766,18.7846576 1.0212766,16.3404255 C1.0212766,13.8961935 3.0027427,11.9149767 5.44672538,11.9149767 C7.89095745,11.9149767 9.87242355,13.8961935 9.87242355,16.3404255 Z" id="Path" fill="#000000" fill-rule="nonzero"></path>
                        <path d="M5.44672538,21.7871509 C2.4429854,21.7871509 0,19.3444149 0,16.3404255 C0,13.3364362 2.4429854,10.8937001 5.44672538,10.8937001 C8.45071474,10.8937001 10.8937001,13.3364362 10.8937001,16.3404255 C10.8937001,19.3444149 8.45071474,21.7871509 5.44672538,21.7871509 Z M5.44672538,12.9362533 C3.56898268,12.9362533 2.04255319,14.4639295 2.04255319,16.3404255 C2.04255319,18.2169216 3.56898268,19.7445977 5.44672538,19.7445977 C7.3247174,19.7445977 8.85114696,18.2169216 8.85114696,16.3404255 C8.85114696,14.4639295 7.3247174,12.9362533 5.44672538,12.9362533 Z" id="Shape" fill="#000000" fill-rule="nonzero"></path>
                        <path d="M8.6619016,15.6869182 C8.18791557,15.6869182 7.72764294,15.4403258 7.47706117,14.999252 C7.10530251,14.3469913 7.33419217,13.5149601 7.98645281,13.1417055 L20.6215093,5.93841421 C21.2737699,5.56391291 22.1058012,5.79280251 22.4790559,6.44755653 C22.8508145,7.09981717 22.6219249,7.9318484 21.9696642,8.30510304 L9.33435836,15.5083943 C9.12192485,15.6295711 8.89054187,15.6869182 8.6619016,15.6869182 Z" id="Path" fill="#000000" fill-rule="nonzero"></path>
                        <path d="M21.2957114,26.9209608 C21.0668218,26.9209608 20.8354388,26.8636137 20.6230053,26.7424369 L7.98769947,19.5391456 C7.33543883,19.1673869 7.10679855,18.3353557 7.47855715,17.6815991 C7.84881983,17.0280918 8.68209772,16.7979555 9.3358544,17.1724568 L21.9711603,24.375748 C22.6234209,24.7475067 22.8520612,25.5795379 22.4803025,26.2332945 C22.2284741,26.6743684 21.7682014,26.9209608 21.2957114,26.9209608 L21.2957114,26.9209608 Z" id="Path" fill="#000000" fill-rule="nonzero"></path>
                    </g>
                </g>
            </g>
        </g>
    </g>
</svg>