<?xml version="1.0" encoding="UTF-8"?>
<svg width="34px" height="34px" viewBox="0 0 34 34" version="1.1" xmlns="http://www.w3.org/2000/svg" xmlns:xlink="http://www.w3.org/1999/xlink">
    <title>smile</title>
    <defs>
        <filter id="filter-1">
            <feColorMatrix in="SourceGraphic" type="matrix" values="0 0 0 0 1.000000 0 0 0 0 1.000000 0 0 0 0 1.000000 0 0 0 1.000000 0"></feColorMatrix>
        </filter>
    </defs>
    <g id="Page" stroke="none" stroke-width="1" fill="none" fill-rule="evenodd">
        <g id="Landing-page" transform="translate(-422.000000, -1498.000000)">
            <g id="Za-uslugata" transform="translate(403.000000, 1110.000000)">
                <g id="smile" transform="translate(0.000000, 368.000000)" filter="url(#filter-1)">
                    <g transform="translate(19.000000, 20.000000)">
                        <path d="M29.0208594,4.97914063 C25.809918,1.76833203 21.5408594,0 17,0 C12.4591406,0 8.19008203,1.76833203 4.97914063,4.97914063 C1.76833203,8.19008203 0,12.4591406 0,17 C0,21.5408594 1.76833203,25.8099844 4.97914063,29.0208594 C8.19008203,32.231668 12.4591406,34 17,34 C21.5408594,34 25.809918,32.231668 29.0208594,29.0208594 C32.231668,25.8099844 34,21.5408594 34,17 C34,12.4591406 32.231668,8.19008203 29.0208594,4.97914063 Z M17,31.34375 C9.09081641,31.34375 2.65625,24.9091836 2.65625,17 C2.65625,9.09081641 9.09081641,2.65625 17,2.65625 C24.9091836,2.65625 31.34375,9.09081641 31.34375,17 C31.34375,24.9091836 24.9091836,31.34375 17,31.34375 Z" id="Shape" fill="#000000" fill-rule="nonzero"></path>
                        <path d="M24.4790568,19.0500837 C24.4742849,19.0640031 23.9953739,20.4567215 22.8208292,21.8074865 C21.3260385,23.5265948 19.4178839,24.3982471 17.1493863,24.3982471 C14.8645184,24.3982471 12.8947934,23.5161878 11.2950213,21.7767859 C10.0410779,20.4133372 9.4875401,19.0098216 9.48369608,19 L7,19.9099631 C7.02783595,19.9829423 7.69808595,21.717661 9.2542483,23.4400865 C11.358315,25.7689806 14.0884255,27 17.1493863,27 C20.2253917,27 22.9090427,25.759224 24.9102489,23.4117924 C26.3893985,21.6767485 26.975743,19.9286957 27,19.8551311 L24.4790568,19.0500837 Z" id="Path" fill="#000000" fill-rule="nonzero"></path>
                        <circle id="Oval" fill="#000000" fill-rule="nonzero" cx="11" cy="12" r="2"></circle>
                        <circle id="Oval" fill="#000000" fill-rule="nonzero" cx="23" cy="12" r="2"></circle>
                    </g>
                </g>
            </g>
        </g>
    </g>
</svg>